<mxfile host="app.diagrams.net" modified="2023-10-03T12:27:56.179Z" agent="Mozilla/5.0 (Windows NT 10.0; Win64; x64) AppleWebKit/537.36 (KHTML, like Gecko) Chrome/117.0.0.0 Safari/537.36" etag="7XDLNsv7ZpfbJJL5MEJ7" version="22.0.2" type="github">
  <diagram name="PÃ¡gina-1" id="91VNfWP0gXdSbYZWdZZZ">
    <mxGraphModel dx="880" dy="446" grid="1" gridSize="10" guides="1" tooltips="1" connect="1" arrows="1" fold="1" page="1" pageScale="1" pageWidth="827" pageHeight="1169" math="0" shadow="0">
      <root>
        <mxCell id="0" />
        <mxCell id="1" parent="0" />
        <mxCell id="OU0BFh9fgboDowWnD3pi-1" value="Inseri" style="rounded=1;whiteSpace=wrap;html=1;" vertex="1" parent="1">
          <mxGeometry x="100" y="100" width="120" height="30" as="geometry" />
        </mxCell>
        <mxCell id="OU0BFh9fgboDowWnD3pi-2" value="Atualiza" style="rounded=1;whiteSpace=wrap;html=1;" vertex="1" parent="1">
          <mxGeometry x="100" y="170" width="120" height="30" as="geometry" />
        </mxCell>
        <mxCell id="OU0BFh9fgboDowWnD3pi-3" value="Deleta" style="rounded=1;whiteSpace=wrap;html=1;" vertex="1" parent="1">
          <mxGeometry x="100" y="230" width="120" height="30" as="geometry" />
        </mxCell>
        <mxCell id="OU0BFh9fgboDowWnD3pi-5" value="Clientes" style="rounded=1;whiteSpace=wrap;html=1;" vertex="1" parent="1">
          <mxGeometry x="270" y="80" width="120" height="30" as="geometry" />
        </mxCell>
        <mxCell id="OU0BFh9fgboDowWnD3pi-6" value="Produtos" style="rounded=1;whiteSpace=wrap;html=1;" vertex="1" parent="1">
          <mxGeometry x="270" y="130" width="120" height="30" as="geometry" />
        </mxCell>
      </root>
    </mxGraphModel>
  </diagram>
</mxfile>
